<?xml version="1.0" encoding="utf-8"?><!-- Uploaded to: SVG Repo, www.svgrepo.com, Generator: SVG Repo Mixer Tools -->
<svg width="800px" height="800px" viewBox="0 0 24 24" fill="none" xmlns="http://www.w3.org/2000/svg">
<path fill-rule="evenodd" clip-rule="evenodd" d="M12 4.5C11.1716 4.5 10.5 5.17157 10.5 6C10.5 6.82843 11.1716 7.5 12 7.5C12.8284 7.5 13.5 6.82843 13.5 6C13.5 5.17157 12.8284 4.5 12 4.5ZM9 6C9 4.34315 10.3431 3 12 3C13.6569 3 15 4.34315 15 6C15 7.65685 13.6569 9 12 9C10.3431 9 9 7.65685 9 6ZM7.5 12C7.5 10.7574 8.50736 9.75 9.75 9.75H14.25C15.4926 9.75 16.5 10.7574 16.5 12C16.5 13.2426 17.5074 14.25 18.75 14.25H20.25V15.75H18.75C16.6789 15.75 15 14.0711 15 12V16.5H16.5C17.7426 16.5 18.75 17.5074 18.75 18.75C18.75 19.9926 17.7426 21 16.5 21H7.5C6.25736 21 5.25 19.9926 5.25 18.75C5.25 17.5074 6.25736 16.5 7.5 16.5H9V12C9 14.0711 7.32107 15.75 5.25 15.75H3.75V14.25H5.25C6.49264 14.25 7.5 13.2426 7.5 12ZM13.5 11.25H10.5V16.5H13.5V11.25ZM7.5 18C7.08579 18 6.75 18.3358 6.75 18.75C6.75 19.1642 7.08579 19.5 7.5 19.5H16.5C16.9142 19.5 17.25 19.1642 17.25 18.75C17.25 18.3358 16.9142 18 16.5 18H7.5Z" fill="#080341"/>
</svg>