<?xml version="1.0" encoding="utf-8"?><!-- Uploaded to: SVG Repo, www.svgrepo.com, Generator: SVG Repo Mixer Tools -->
<svg width="800px" height="800px" viewBox="0 0 24 24" fill="none" xmlns="http://www.w3.org/2000/svg">
<path fill-rule="evenodd" clip-rule="evenodd" d="M11.25 5.25C11.25 6.07843 10.5784 6.75 9.75 6.75C8.92157 6.75 8.25 6.07843 8.25 5.25C8.25 4.42157 8.92157 3.75 9.75 3.75C10.5784 3.75 11.25 4.42157 11.25 5.25ZM12.75 5.25C12.75 6.64788 11.7939 7.82245 10.5 8.15549V9.75H15.375V11.25H10.5V14.25H17.8649L18.6149 18H19.5V19.5H17.3851L16.6351 15.75H15.75C15.75 19.0637 13.0637 21.75 9.75 21.75C6.43629 21.75 3.75 19.0637 3.75 15.75C3.75 12.6903 6.04027 10.1655 9 9.79642V8.15549C7.70608 7.82245 6.75 6.64788 6.75 5.25C6.75 3.59315 8.09315 2.25 9.75 2.25C11.4069 2.25 12.75 3.59315 12.75 5.25ZM9 15.75H14.25C14.25 18.2353 12.2353 20.25 9.75 20.25C7.26472 20.25 5.25 18.2353 5.25 15.75C5.25 13.5203 6.87171 11.6693 9 11.3122V15.75Z" fill="#080341"/>
</svg>